<svg xmlns="http://www.w3.org/2000/svg" viewBox="0 0 1200 630">
  <defs>
    <linearGradient id="bg" x1="0" y1="0" x2="1" y2="1">
      <stop offset="0%" stop-color="#0b0b12"/>
      <stop offset="100%" stop-color="#1a1a2e"/>
    </linearGradient>
    <radialGradient id="glow" cx="0.2" cy="0.2" r="0.8">
      <stop offset="0%" stop-color="#7c3aed" stop-opacity="0.45"/>
      <stop offset="100%" stop-color="#7c3aed" stop-opacity="0"/>
    </radialGradient>
  </defs>
  <rect width="1200" height="630" fill="url(#bg)"/>
  <rect width="1200" height="630" fill="url(#glow)"/>

  <g transform="translate(80,80)">
    <rect width="80" height="80" rx="18" fill="#fafafa"/>
    <path d="M22 18h26a18 18 0 0 1 0 36h-12v10H22V18Zm10 10v16h8a8 8 0 0 0 0-16h-8Z" fill="#09090b"/>
  </g>

  <text x="80" y="280" fill="#fafafa" font-family="ui-sans-serif, system-ui, -apple-system, Segoe UI" font-size="68" font-weight="700" letter-spacing="-1">
    Foundry Agent Playground
  </text>
  <text x="80" y="335" fill="#a1a1aa" font-family="ui-sans-serif, system-ui, -apple-system, Segoe UI" font-size="30" font-weight="500">
    Streaming Claude · Tool Calls · RAG over pgvector
  </text>

  <g transform="translate(80,420)" font-family="ui-monospace, SFMono-Regular, monospace" font-size="22" fill="#fafafa">
    <rect x="0" y="0" width="280" height="56" rx="12" fill="#27272a"/>
    <text x="22" y="36">Next.js + Edge</text>
    <rect x="300" y="0" width="280" height="56" rx="12" fill="#27272a"/>
    <text x="322" y="36">Vercel AI SDK</text>
    <rect x="600" y="0" width="260" height="56" rx="12" fill="#27272a"/>
    <text x="622" y="36">Neon + pgvector</text>
  </g>
</svg>
